<svg id="Button_Replaydb" data-name="Button Replaydb" xmlns="http://www.w3.org/2000/svg" xmlns:xlink="http://www.w3.org/1999/xlink" viewBox="0 0 201.9 40.7"><defs><linearGradient id="Degradado_sin_nombre_77" x1="192.85" y1="16.91" x2="0.02" y2="16.91" gradientUnits="userSpaceOnUse"><stop offset="0" stop-color="#9b7944"/><stop offset="0.38" stop-color="#bb9151"/><stop offset="1" stop-color="#715834"/></linearGradient><linearGradient id="Degradado_sin_nombre_41" x1="0.29" y1="33.76" x2="12.17" y2="33.76" gradientUnits="userSpaceOnUse"><stop offset="0" stop-color="#9b7944"/><stop offset="1" stop-color="#bb9151"/></linearGradient><linearGradient id="Degradado_sin_nombre_41-2" x1="199.93" y1="6.24" x2="188.01" y2="6.24" xlink:href="#Degradado_sin_nombre_41"/><linearGradient id="Degradado_sin_nombre_54" x1="7.92" y1="0.93" x2="193.76" y2="0.93" gradientUnits="userSpaceOnUse"><stop offset="0" stop-color="#906c3e"/><stop offset="1" stop-color="#fdd38e"/></linearGradient><linearGradient id="Degradado_sin_nombre_54-2" x1="13.01" y1="6.74" x2="188.98" y2="6.74" xlink:href="#Degradado_sin_nombre_54"/><linearGradient id="Degradado_sin_nombre_71" x1="7.39" y1="39.3" x2="7.39" y2="39.3" gradientUnits="userSpaceOnUse"><stop offset="0" stop-color="#a18154"/><stop offset="1" stop-color="#fdd38e"/></linearGradient><linearGradient id="Degradado_sin_nombre_71-2" x1="-0.67" y1="33.76" x2="12.72" y2="33.76" xlink:href="#Degradado_sin_nombre_71"/></defs><title>browse_flash</title><g id="Hover"><path d="M188,6.1H12a6.9,6.9,0,0,1-2,3.6,7.6,7.6,0,0,1-3.8,2V27.9L0,33.1V7.5H.1a17.4,17.4,0,0,0,4.1-3A22.5,22.5,0,0,0,7,.8H192.9Z" transform="translate(1 0.5)" fill="url(#Degradado_sin_nombre_77)"/><path d="M7.4,39.4H193a19.7,19.7,0,0,1,3.3-4.3,15.7,15.7,0,0,1,3.6-2.5V7.3l-6,4.5V27.7a9.3,9.3,0,0,0-3.8,1.9,8.4,8.4,0,0,0-2.2,3.7H12.2Z" transform="translate(1 0.5)" fill="#f7f7d4"/><path d="M12.2,33.4a7.9,7.9,0,0,0-2.5-3.9,7.1,7.1,0,0,0-3.4-1.6l-6,5.2a12.5,12.5,0,0,1,4.2,2.7,13.6,13.6,0,0,1,2.9,3.8Z" transform="translate(1 0.5)" fill="url(#Degradado_sin_nombre_41)"/><path d="M193.9,11.8a8.2,8.2,0,0,1-3.4-1.6A8.8,8.8,0,0,1,188,6.3L192.8.7a16.4,16.4,0,0,0,2.6,3.5,17.3,17.3,0,0,0,4.5,3.1Z" transform="translate(1 0.5)" fill="url(#Degradado_sin_nombre_41-2)"/><path d="M187.9,33.3H12.2a7.9,7.9,0,0,0-2.5-3.9,7.1,7.1,0,0,0-3.4-1.6h0V11.7h0a8.6,8.6,0,0,0,4.1-2.3A6.4,6.4,0,0,0,12,6.1h0l176,.2h0a7.9,7.9,0,0,0,2.5,3.9,9.8,9.8,0,0,0,3.4,1.6h0V27.7h0a8.8,8.8,0,0,0-4.2,2.4,7.7,7.7,0,0,0-1.7,3.2Z" transform="translate(1 0.5)" fill="#a18154"/><line x1="7.9" y1="1" x2="193.8" y2="0.9" fill="none" stroke-miterlimit="10" stroke="url(#Degradado_sin_nombre_54)"/><line x1="1" y1="7.7" x2="1.2" y2="33.2" fill="none" stroke="#906c3e" stroke-miterlimit="10"/><line x1="200.9" y1="7.5" x2="200.9" y2="32.8" fill="none" stroke="#fdd38e" stroke-miterlimit="10"/><line x1="8.4" y1="39.8" x2="194" y2="39.6" fill="none" stroke="#fdd38e" stroke-miterlimit="10"/><line x1="7.2" y1="12.3" x2="7.3" y2="28.4" fill="none" stroke="#906c3e" stroke-miterlimit="10"/><line x1="13" y1="6.7" x2="189" y2="6.8" fill="none" stroke-miterlimit="10" stroke="url(#Degradado_sin_nombre_54-2)"/><line x1="194.9" y1="12.3" x2="194.7" y2="28.3" fill="none" stroke="#fdd38e" stroke-miterlimit="10"/><line x1="13.1" y1="33.9" x2="188.9" y2="33.9" fill="none" stroke="#fdd38e" stroke-miterlimit="10"/><path d="M0,7.2" transform="translate(1 0.5)" fill="none" stroke="#906c3e" stroke-miterlimit="10"/><path d="M6.2,11.7,0,7.2a19.8,19.8,0,0,0,4.2-3A18,18,0,0,0,7,.4H7l5,5.7h0a6.4,6.4,0,0,1-1.7,3.3,8.6,8.6,0,0,1-4.1,2.3Z" transform="translate(1 0.5)" fill="none" stroke="#906c3e" stroke-miterlimit="10"/><path d="M7.4,39.3" transform="translate(1 0.5)" fill="none" stroke-miterlimit="10" stroke="url(#Degradado_sin_nombre_71)"/><path d="M12.2,33.4,7.4,39.3a17.3,17.3,0,0,0-3.1-4,18.8,18.8,0,0,0-4-2.6h0l6-4.8h0a7.1,7.1,0,0,1,3.4,1.6,7.9,7.9,0,0,1,2.5,3.9Z" transform="translate(1 0.5)" fill="none" stroke-miterlimit="10" stroke="url(#Degradado_sin_nombre_71-2)"/><path d="M200,32.3" transform="translate(1 0.5)" fill="none" stroke="#fdd38e" stroke-miterlimit="10"/><path d="M193.8,27.7l6.2,4.6a14.4,14.4,0,0,0-4.2,2.9A15.1,15.1,0,0,0,193,39h0l-5.1-5.7h0a7.7,7.7,0,0,1,1.7-3.2,8.8,8.8,0,0,1,4.2-2.4Z" transform="translate(1 0.5)" fill="none" stroke="#fdd38e" stroke-miterlimit="10"/><path d="M192.8.4" transform="translate(1 0.5)" fill="none" stroke="#fdd38e" stroke-miterlimit="10"/><path d="M188,6.3,192.8.4a15.3,15.3,0,0,0,3.1,3.9,14,14,0,0,0,4,2.6h0l-6,4.9h0a9.8,9.8,0,0,1-3.4-1.6A7.9,7.9,0,0,1,188,6.3Z" transform="translate(1 0.5)" fill="none" stroke="#fdd38e" stroke-miterlimit="10"/><text transform="translate(55.9 26.7)" font-size="18" fill="#594628" font-family="AlbertusMT, Albertus MT">B<tspan x="9.2" y="0" letter-spacing="-0.06em">r</tspan><tspan x="15.4" y="0">owse </tspan><tspan x="57.6" y="0" letter-spacing="-0.04em">F</tspan><tspan x="65.3" y="0">iles</tspan><tspan x="88.9" y="0" font-size="12" font-family="MyriadPro-Regular, Myriad Pro"> </tspan></text></g><path id="Flash" d="M7.4,40a13.7,13.7,0,0,0-3.1-4.1,17.5,17.5,0,0,0-4-2.7h0L0,7A15.1,15.1,0,0,0,4.2,4,17.2,17.2,0,0,0,7,.1H192.8a15.6,15.6,0,0,0,3.1,4.1,20,20,0,0,0,4,2.7h0v26a16.7,16.7,0,0,0-4.2,3,21.1,21.1,0,0,0-2.8,3.9h0Z" transform="translate(1 0.5)" fill="#f7f7d4" opacity="0.8"/></svg>