<?xml version="1.0" encoding="utf-8"?>
<!-- Generator: Adobe Illustrator 22.1.0, SVG Export Plug-In . SVG Version: 6.00 Build 0)  -->
<svg version="1.1" id="Button_Replaydb" xmlns="http://www.w3.org/2000/svg" xmlns:xlink="http://www.w3.org/1999/xlink" x="0px"
	 y="0px" viewBox="0 0 201.9 40.7" style="enable-background:new 0 0 201.9 40.7;" xml:space="preserve">
<style type="text/css">
	.st0{fill:url(#SVGID_1_);}
	.st1{fill:#F7F7D4;}
	.st2{fill:url(#SVGID_2_);}
	.st3{fill:url(#SVGID_3_);}
	.st4{fill:#A18154;}
	.st5{fill:url(#Glow_1_);}
	.st6{fill:none;stroke:url(#SVGID_4_);stroke-miterlimit:10;}
	.st7{fill:none;stroke:#906C3E;stroke-miterlimit:10;}
	.st8{fill:none;stroke:#FDD38E;stroke-miterlimit:10;}
	.st9{fill:none;stroke:url(#SVGID_5_);stroke-miterlimit:10;}
	.st10{fill:none;stroke:url(#SVGID_6_);stroke-miterlimit:10;}
	.st11{fill:none;stroke:url(#SVGID_7_);stroke-miterlimit:10;}
</style>
<g id="Hover">
	
		<linearGradient id="SVGID_1_" gradientUnits="userSpaceOnUse" x1="192.9" y1="25.05" x2="1.818989e-12" y2="25.05" gradientTransform="matrix(1 0 0 -1 1 42.5)">
		<stop  offset="0" style="stop-color:#9B7944"/>
		<stop  offset="0.38" style="stop-color:#BB9151"/>
		<stop  offset="1" style="stop-color:#715834"/>
	</linearGradient>
	<path class="st0" d="M189,6.6H13c-0.3,1.4-1,2.6-2,3.6c-1,1-2.4,1.7-3.8,2v16.2L1,33.6V8h0.1C2.6,7.2,4,6.2,5.2,5
		c1.1-1.1,2-2.4,2.8-3.7h185.9L189,6.6z"/>
	<path class="st1" d="M8.4,39.9H194c0.9-1.6,2-3,3.3-4.3c1.1-1,2.3-1.8,3.6-2.5V7.8l-6,4.5v15.9c-1.4,0.3-2.7,1-3.8,1.9
		c-1,1-1.8,2.3-2.2,3.7H13.2L8.4,39.9z"/>
	
		<linearGradient id="SVGID_2_" gradientUnits="userSpaceOnUse" x1="0.3" y1="8.25" x2="12.18" y2="8.25" gradientTransform="matrix(1 0 0 -1 1 42.5)">
		<stop  offset="0" style="stop-color:#9B7944"/>
		<stop  offset="1" style="stop-color:#BB9151"/>
	</linearGradient>
	<path class="st2" d="M13.2,33.9c-0.4-1.5-1.3-2.9-2.5-3.9c-1-0.8-2.1-1.4-3.4-1.6l-6,5.2c1.6,0.6,3,1.5,4.2,2.7
		c1.2,1.1,2.2,2.4,2.9,3.8L13.2,33.9z"/>
	
		<linearGradient id="SVGID_3_" gradientUnits="userSpaceOnUse" x1="199.93" y1="35.75" x2="188.01" y2="35.75" gradientTransform="matrix(1 0 0 -1 1 42.5)">
		<stop  offset="0" style="stop-color:#9B7944"/>
		<stop  offset="1" style="stop-color:#BB9151"/>
	</linearGradient>
	<path class="st3" d="M194.9,12.3c-1.2-0.3-2.4-0.8-3.4-1.6c-1.2-1.1-2-2.4-2.5-3.9l4.8-5.6c0.7,1.3,1.6,2.5,2.6,3.5
		c1.3,1.3,2.8,2.3,4.5,3.1L194.9,12.3z"/>
	<path class="st4" d="M188.9,33.8H13.2c-0.4-1.5-1.3-2.9-2.5-3.9c-1-0.8-2.1-1.4-3.4-1.6l0,0V12.2l0,0c1.6-0.4,3-1.2,4.1-2.3
		C12.2,9,12.8,7.8,13,6.6l0,0l176,0.2l0,0c0.4,1.5,1.3,2.9,2.5,3.9c1,0.7,2.2,1.3,3.4,1.6l0,0v15.9l0,0c-1.6,0.4-3.1,1.2-4.2,2.4
		c-0.8,0.9-1.4,2-1.7,3.2H188.9z"/>
	<g>
		
			<linearGradient id="Glow_1_" gradientUnits="userSpaceOnUse" x1="22.059" y1="39.7084" x2="63.4121" y2="5.0159" gradientTransform="matrix(1 0 0 -1 1 42.5)">
			<stop  offset="0" style="stop-color:#FED692;stop-opacity:0"/>
			<stop  offset="6.000000e-02" style="stop-color:#FED998;stop-opacity:0.17"/>
			<stop  offset="0.15" style="stop-color:#FEDFA2;stop-opacity:0.42"/>
			<stop  offset="0.24" style="stop-color:#FFE3AA;stop-opacity:0.62"/>
			<stop  offset="0.32" style="stop-color:#FFE7B0;stop-opacity:0.79"/>
			<stop  offset="0.39" style="stop-color:#FFE9B4;stop-opacity:0.9"/>
			<stop  offset="0.45" style="stop-color:#FFEAB7;stop-opacity:0.97"/>
			<stop  offset="0.5" style="stop-color:#FFEBB8"/>
			<stop  offset="0.55" style="stop-color:#FFE9B5;stop-opacity:0.93"/>
			<stop  offset="0.66" style="stop-color:#FEE5AD;stop-opacity:0.74"/>
			<stop  offset="0.81" style="stop-color:#FEDDA0;stop-opacity:0.43"/>
			<stop  offset="0.99" style="stop-color:#FDD38F;stop-opacity:2.000000e-02"/>
			<stop  offset="1" style="stop-color:#FDD38E;stop-opacity:0"/>
		</linearGradient>
		<path id="Glow" class="st5" d="M62.1,39.8c3.2-3.2,6.1-6.6,8.7-10.3c12.4-17.1,17.5-15.3,14.6-29h-60c-3.2,3.2-6.1,6.6-8.8,10.3
			C4.3,27.8-0.8,26,2.1,39.8H62.1z"/>
		
			<animateTransform  accumulate="none" additive="replace" attributeName="transform" begin="0s" calcMode="linear" dur="1.7s" fill="remove" from="-100 0" repeatCount="indefinite" restart="always" to="250 0" type="translate">
			</animateTransform>
		
			<animate  accumulate="none" additive="replace" attributeName="opacity" calcMode="linear" dur="1.7s" fill="remove" repeatCount="indefinite" restart="always" values="0; 0.2; 0.9; 0.1; 0;">
			</animate>
	</g>
	
		<linearGradient id="SVGID_4_" gradientUnits="userSpaceOnUse" x1="7.8997" y1="41.05" x2="193.8003" y2="41.05" gradientTransform="matrix(1 0 0 -1 0 42)">
		<stop  offset="0" style="stop-color:#906C3E"/>
		<stop  offset="1" style="stop-color:#FDD38E"/>
	</linearGradient>
	<line class="st6" x1="7.9" y1="1" x2="193.8" y2="0.9"/>
	<line class="st7" x1="1" y1="7.7" x2="1.2" y2="33.2"/>
	<line class="st8" x1="200.9" y1="7.5" x2="200.9" y2="32.8"/>
	<line class="st8" x1="8.4" y1="39.8" x2="194" y2="39.6"/>
	<line class="st7" x1="7.2" y1="12.3" x2="7.3" y2="28.4"/>
	
		<linearGradient id="SVGID_5_" gradientUnits="userSpaceOnUse" x1="12.9997" y1="35.25" x2="189.0003" y2="35.25" gradientTransform="matrix(1 0 0 -1 0 42)">
		<stop  offset="0" style="stop-color:#906C3E"/>
		<stop  offset="1" style="stop-color:#FDD38E"/>
	</linearGradient>
	<line class="st9" x1="13" y1="6.7" x2="189" y2="6.8"/>
	<line class="st8" x1="194.9" y1="12.3" x2="194.7" y2="28.3"/>
	<line class="st8" x1="13.1" y1="33.9" x2="188.9" y2="33.9"/>
	<path class="st7" d="M1,7.7"/>
	<path class="st7" d="M7.2,12.2L1,7.7c1.5-0.8,2.9-1.8,4.2-3c1.1-1.1,2-2.4,2.8-3.8l0,0l5,5.7l0,0c-0.2,1.2-0.8,2.4-1.7,3.3
		C10.2,11,8.8,11.8,7.2,12.2z"/>
	
		<linearGradient id="SVGID_6_" gradientUnits="userSpaceOnUse" x1="7.4" y1="2.7" x2="7.4" y2="2.7" gradientTransform="matrix(1 0 0 -1 1 42.5)">
		<stop  offset="0" style="stop-color:#A18154"/>
		<stop  offset="1" style="stop-color:#FDD38E"/>
	</linearGradient>
	<path class="st10" d="M8.4,39.8"/>
	
		<linearGradient id="SVGID_7_" gradientUnits="userSpaceOnUse" x1="-0.67" y1="8.223" x2="12.7136" y2="8.223" gradientTransform="matrix(1 0 0 -1 1 42.5)">
		<stop  offset="0" style="stop-color:#A18154"/>
		<stop  offset="1" style="stop-color:#FDD38E"/>
	</linearGradient>
	<path class="st11" d="M13.2,33.9l-4.8,5.9c-0.8-1.5-1.9-2.8-3.1-4c-1.2-1-2.6-1.9-4-2.6l0,0l6-4.8l0,0c1.3,0.2,2.4,0.8,3.4,1.6
		C11.9,31,12.8,32.4,13.2,33.9z"/>
	<path class="st8" d="M201,32.8"/>
	<path class="st8" d="M194.8,28.2l6.2,4.6c-1.6,0.7-3,1.7-4.2,2.9c-1.1,1.1-2.1,2.4-2.8,3.8l0,0l-5.1-5.7l0,0
		c0.3-1.2,0.9-2.3,1.7-3.2C191.7,29.4,193.2,28.6,194.8,28.2L194.8,28.2z"/>
	<path class="st8" d="M193.8,0.9"/>
	<path class="st8" d="M189,6.8l4.8-5.9c0.8,1.5,1.9,2.8,3.1,3.9c1.2,1.1,2.5,2,4,2.6l0,0l-6,4.9l0,0c-1.2-0.3-2.4-0.9-3.4-1.6
		C190.3,9.7,189.4,8.3,189,6.8z"/>
</g>
</svg>
