<?xml version="1.0" encoding="utf-8"?>
<!-- Generator: Adobe Illustrator 22.1.0, SVG Export Plug-In . SVG Version: 6.00 Build 0)  -->
<svg version="1.1" id="Button_Replaydb" xmlns="http://www.w3.org/2000/svg" xmlns:xlink="http://www.w3.org/1999/xlink" x="0px"
	 y="0px" viewBox="0 0 201.9 40.7" style="enable-background:new 0 0 201.9 40.7;" xml:space="preserve">
<style type="text/css">
	.st0{fill:url(#SVGID_1_);}
	.st1{fill:none;stroke:url(#SVGID_2_);stroke-miterlimit:10;}
	.st2{fill:none;stroke:url(#SVGID_3_);stroke-miterlimit:10;}
	.st3{fill:none;stroke:url(#SVGID_4_);stroke-miterlimit:10;}
	.st4{fill:none;stroke:url(#SVGID_5_);stroke-miterlimit:10;}
	.st5{fill:none;stroke:url(#SVGID_6_);stroke-miterlimit:10;}
	.st6{fill:none;stroke:url(#SVGID_7_);stroke-miterlimit:10;}
	.st7{fill:none;stroke:url(#SVGID_8_);stroke-miterlimit:10;}
	.st8{fill:none;stroke:url(#SVGID_9_);stroke-miterlimit:10;}
	.st9{fill:none;stroke:url(#SVGID_10_);stroke-miterlimit:10;}
	.st10{fill:none;stroke:url(#SVGID_11_);stroke-miterlimit:10;}
	.st11{fill:none;stroke:url(#SVGID_12_);stroke-miterlimit:10;}
	.st12{fill:none;stroke:url(#SVGID_13_);stroke-miterlimit:10;}
	.st13{fill:none;stroke:url(#SVGID_14_);stroke-miterlimit:10;}
	.st14{fill:none;stroke:#B07A3F;stroke-miterlimit:10;}
	.st15{fill:none;stroke:#7D452F;stroke-miterlimit:10;}
	.st16{fill:none;stroke:#C98A49;stroke-miterlimit:10;}
</style>
<g id="Normal">
	<g id="Button">
		
			<radialGradient id="SVGID_1_" cx="5.0795" cy="217.6952" r="47.9333" gradientTransform="matrix(1.51 0 0 -1.43 93.28 332.13)" gradientUnits="userSpaceOnUse">
			<stop  offset="0" style="stop-color:#270F0D"/>
			<stop  offset="1" style="stop-color:#4B2917"/>
		</radialGradient>
		<path class="st0" d="M8.4,40.1c-0.8-1.5-1.8-2.8-3.1-3.9c-1.2-1.1-2.5-2-4-2.6l0,0L1,8c1.6-0.7,3-1.7,4.2-2.9C6.3,4,7.3,2.7,8,1.3
			h185.8c0.8,1.5,1.9,2.8,3.1,4c1.2,1,2.6,1.9,4,2.6l0,0v25.2c-1.5,0.8-2.9,1.8-4.2,3c-1.1,1.1-2,2.4-2.8,3.8l0,0L8.4,40.1z"/>
		
			<linearGradient id="SVGID_2_" gradientUnits="userSpaceOnUse" x1="6.3" y1="14.1" x2="6.3" y2="14.1" gradientTransform="matrix(1 0 0 -1 1 42.5)">
			<stop  offset="0" style="stop-color:#7C452E"/>
			<stop  offset="1" style="stop-color:#B07A40"/>
		</linearGradient>
		<path class="st1" d="M7.3,28.4"/>
		
			<linearGradient id="SVGID_3_" gradientUnits="userSpaceOnUse" x1="6.2" y1="30.3" x2="6.2" y2="30.3" gradientTransform="matrix(1 0 0 -1 1 42.5)">
			<stop  offset="0" style="stop-color:#7C452E"/>
			<stop  offset="1" style="stop-color:#B07A40"/>
		</linearGradient>
		<path class="st2" d="M7.2,12.2"/>
		
			<linearGradient id="SVGID_4_" gradientUnits="userSpaceOnUse" x1="0" y1="34.8" x2="0" y2="34.8" gradientTransform="matrix(1 0 0 -1 1 42.5)">
			<stop  offset="0" style="stop-color:#7C452E"/>
			<stop  offset="1" style="stop-color:#B07A40"/>
		</linearGradient>
		<path class="st3" d="M1,7.7"/>
		
			<linearGradient id="SVGID_5_" gradientUnits="userSpaceOnUse" x1="12" y1="35.9" x2="12" y2="35.9" gradientTransform="matrix(1 0 0 -1 1 42.5)">
			<stop  offset="0" style="stop-color:#7C452E"/>
			<stop  offset="1" style="stop-color:#B07A40"/>
		</linearGradient>
		<path class="st4" d="M13,6.6"/>
		
			<linearGradient id="SVGID_6_" gradientUnits="userSpaceOnUse" x1="7" y1="41.6" x2="7" y2="41.6" gradientTransform="matrix(1 0 0 -1 1 42.5)">
			<stop  offset="0" style="stop-color:#7C452E"/>
			<stop  offset="1" style="stop-color:#B07A40"/>
		</linearGradient>
		<path class="st5" d="M8,0.9"/>
		
			<linearGradient id="SVGID_7_" gradientUnits="userSpaceOnUse" x1="193.8003" y1="41.05" x2="7.8997" y2="41.05" gradientTransform="matrix(1 0 0 -1 0 42)">
			<stop  offset="0" style="stop-color:#7C452E"/>
			<stop  offset="1" style="stop-color:#B07A40"/>
		</linearGradient>
		<line class="st6" x1="7.9" y1="1" x2="193.8" y2="0.9"/>
		
			<linearGradient id="SVGID_8_" gradientUnits="userSpaceOnUse" x1="-5.477" y1="14.973" x2="7.653" y2="28.103" gradientTransform="matrix(1 0 0 -1 0 42)">
			<stop  offset="0" style="stop-color:#7C452E"/>
			<stop  offset="1" style="stop-color:#B07A40"/>
		</linearGradient>
		<line class="st7" x1="1" y1="7.7" x2="1.2" y2="33.2"/>
		
			<linearGradient id="SVGID_9_" gradientUnits="userSpaceOnUse" x1="2.9725" y1="17.3675" x2="11.5125" y2="25.9175" gradientTransform="matrix(1 0 0 -1 0 42)">
			<stop  offset="0" style="stop-color:#7C452E"/>
			<stop  offset="1" style="stop-color:#B07A40"/>
		</linearGradient>
		<line class="st8" x1="7.2" y1="12.3" x2="7.3" y2="28.4"/>
		
			<linearGradient id="SVGID_10_" gradientUnits="userSpaceOnUse" x1="189.0003" y1="35.25" x2="12.9997" y2="35.25" gradientTransform="matrix(1 0 0 -1 0 42)">
			<stop  offset="0" style="stop-color:#7C452E"/>
			<stop  offset="1" style="stop-color:#B07A40"/>
		</linearGradient>
		<line class="st9" x1="13" y1="6.7" x2="189" y2="6.8"/>
		
			<linearGradient id="SVGID_11_" gradientUnits="userSpaceOnUse" x1="190.5969" y1="25.9031" x2="199.0169" y2="17.4831" gradientTransform="matrix(1 0 0 -1 0 42)">
			<stop  offset="0" style="stop-color:#7C452E"/>
			<stop  offset="1" style="stop-color:#C98A49"/>
		</linearGradient>
		<line class="st10" x1="194.9" y1="12.3" x2="194.7" y2="28.3"/>
		
			<linearGradient id="SVGID_12_" gradientUnits="userSpaceOnUse" x1="194.31" y1="28.44" x2="207.51" y2="15.24" gradientTransform="matrix(1 0 0 -1 0 42)">
			<stop  offset="0" style="stop-color:#7C452E"/>
			<stop  offset="1" style="stop-color:#C98A49"/>
		</linearGradient>
		<line class="st11" x1="200.9" y1="7.5" x2="200.9" y2="32.8"/>
		
			<linearGradient id="SVGID_13_" gradientUnits="userSpaceOnUse" x1="13.1" y1="8.1" x2="188.9" y2="8.1" gradientTransform="matrix(1 0 0 -1 0 42)">
			<stop  offset="0" style="stop-color:#7C452E"/>
			<stop  offset="1" style="stop-color:#C98A49"/>
		</linearGradient>
		<line class="st12" x1="13.1" y1="33.9" x2="188.9" y2="33.9"/>
		
			<linearGradient id="SVGID_14_" gradientUnits="userSpaceOnUse" x1="8.3995" y1="2.3" x2="194.0005" y2="2.3" gradientTransform="matrix(1 0 0 -1 0 42)">
			<stop  offset="0" style="stop-color:#7C452E"/>
			<stop  offset="1" style="stop-color:#C98A49"/>
		</linearGradient>
		<line class="st13" x1="8.4" y1="39.8" x2="194" y2="39.6"/>
		<path class="st14" d="M1,7.7"/>
		<path class="st14" d="M7.2,12.2L1,7.7c1.5-0.8,2.9-1.8,4.2-3c1.1-1.1,2-2.4,2.8-3.8l0,0l5,5.7l0,0c-0.2,1.2-0.8,2.4-1.7,3.3
			C10.2,11,8.8,11.8,7.2,12.2z"/>
		<path class="st15" d="M8.4,39.8"/>
		<path class="st15" d="M13.2,33.9l-4.8,5.9c-0.8-1.5-1.9-2.8-3.1-4c-1.2-1-2.6-1.9-4-2.6l0,0l6-4.8l0,0c1.3,0.2,2.4,0.8,3.4,1.6
			C11.9,31,12.8,32.4,13.2,33.9z"/>
		<path class="st16" d="M201,32.8"/>
		<path class="st16" d="M194.8,28.2l6.2,4.6c-1.6,0.7-3,1.7-4.2,2.9c-1.1,1.1-2.1,2.4-2.8,3.8l0,0l-5.1-5.7l0,0
			c0.3-1.2,0.9-2.3,1.7-3.2C191.7,29.4,193.2,28.6,194.8,28.2L194.8,28.2z"/>
		<path class="st15" d="M193.8,0.9"/>
		<path class="st15" d="M189,6.8l4.8-5.9c0.8,1.5,1.9,2.8,3.1,3.9c1.2,1.1,2.5,2,4,2.6l0,0l-6,4.9l0,0c-1.2-0.3-2.4-0.9-3.4-1.6
			C190.3,9.7,189.4,8.3,189,6.8z"/>
	</g>
</g>
</svg>
