<svg id="Button_Replaydb" data-name="Button Replaydb" xmlns="http://www.w3.org/2000/svg" xmlns:xlink="http://www.w3.org/1999/xlink" viewBox="0 0 201.9 40.7"><defs><radialGradient id="Degradado_sin_nombre_27" cx="38.27" cy="-121.87" r="47.87" gradientTransform="translate(42.3 194.6) scale(1.51 1.43)" gradientUnits="userSpaceOnUse"><stop offset="0" stop-color="#270f0d"/><stop offset="1" stop-color="#4b2917"/></radialGradient><linearGradient id="Degradado_sin_nombre_44" x1="6.29" y1="27.87" x2="6.29" y2="27.87" gradientUnits="userSpaceOnUse"><stop offset="0" stop-color="#7c452e"/><stop offset="1" stop-color="#b07a40"/></linearGradient><linearGradient id="Degradado_sin_nombre_44-2" x1="6.22" y1="11.71" x2="6.22" y2="11.71" xlink:href="#Degradado_sin_nombre_44"/><linearGradient id="Degradado_sin_nombre_44-3" x1="0" y1="7.17" x2="0" y2="7.17" xlink:href="#Degradado_sin_nombre_44"/><linearGradient id="Degradado_sin_nombre_44-4" x1="12.04" y1="6.13" x2="12.04" y2="6.13" xlink:href="#Degradado_sin_nombre_44"/><linearGradient id="Degradado_sin_nombre_44-5" x1="6.95" y1="0.42" x2="6.95" y2="0.42" xlink:href="#Degradado_sin_nombre_44"/><linearGradient id="Degradado_sin_nombre_42" x1="193.76" y1="0.93" x2="7.92" y2="0.93" xlink:href="#Degradado_sin_nombre_44"/><linearGradient id="Degradado_sin_nombre_42-2" x1="-5.46" y1="27.05" x2="7.67" y2="13.92" xlink:href="#Degradado_sin_nombre_44"/><linearGradient id="Degradado_sin_nombre_42-3" x1="2.95" y1="24.61" x2="11.49" y2="16.06" xlink:href="#Degradado_sin_nombre_44"/><linearGradient id="Degradado_sin_nombre_42-4" x1="188.98" y1="6.74" x2="13.01" y2="6.74" xlink:href="#Degradado_sin_nombre_44"/><linearGradient id="Degradado_sin_nombre_37" x1="190.58" y1="16.1" x2="199" y2="24.52" gradientUnits="userSpaceOnUse"><stop offset="0" stop-color="#7c452e"/><stop offset="1" stop-color="#c98a49"/></linearGradient><linearGradient id="Degradado_sin_nombre_37-2" x1="194.31" y1="13.56" x2="207.51" y2="26.76" xlink:href="#Degradado_sin_nombre_37"/><linearGradient id="Degradado_sin_nombre_30" x1="13.13" y1="33.9" x2="188.91" y2="33.9" xlink:href="#Degradado_sin_nombre_37"/><linearGradient id="Degradado_sin_nombre_30-2" x1="8.35" y1="39.71" x2="194" y2="39.71" xlink:href="#Degradado_sin_nombre_37"/></defs><title>submit_base</title><g id="Normal"><g id="Button"><path d="M7.4,39.6a13.3,13.3,0,0,0-3.1-3.9,14,14,0,0,0-4-2.6h0L0,7.5A14.4,14.4,0,0,0,4.2,4.6,15.1,15.1,0,0,0,7,.8H192.8a17.3,17.3,0,0,0,3.1,4,18.8,18.8,0,0,0,4,2.6h0V32.6a19.8,19.8,0,0,0-4.2,3,18,18,0,0,0-2.8,3.8h0Z" transform="translate(1 0.5)" fill="url(#Degradado_sin_nombre_27)"/><path d="M6.3,27.9" transform="translate(1 0.5)" fill="none" stroke-miterlimit="10" stroke="url(#Degradado_sin_nombre_44)"/><path d="M6.2,11.7" transform="translate(1 0.5)" fill="none" stroke-miterlimit="10" stroke="url(#Degradado_sin_nombre_44-2)"/><path d="M0,7.2" transform="translate(1 0.5)" fill="none" stroke-miterlimit="10" stroke="url(#Degradado_sin_nombre_44-3)"/><path d="M12,6.1" transform="translate(1 0.5)" fill="none" stroke-miterlimit="10" stroke="url(#Degradado_sin_nombre_44-4)"/><path d="M7,.4" transform="translate(1 0.5)" fill="none" stroke-miterlimit="10" stroke="url(#Degradado_sin_nombre_44-5)"/><line x1="7.9" y1="1" x2="193.8" y2="0.9" fill="none" stroke-miterlimit="10" stroke="url(#Degradado_sin_nombre_42)"/><line x1="1" y1="7.7" x2="1.2" y2="33.2" fill="none" stroke-miterlimit="10" stroke="url(#Degradado_sin_nombre_42-2)"/><line x1="7.2" y1="12.3" x2="7.3" y2="28.4" fill="none" stroke-miterlimit="10" stroke="url(#Degradado_sin_nombre_42-3)"/><line x1="13" y1="6.7" x2="189" y2="6.8" fill="none" stroke-miterlimit="10" stroke="url(#Degradado_sin_nombre_42-4)"/><line x1="194.9" y1="12.3" x2="194.7" y2="28.3" fill="none" stroke-miterlimit="10" stroke="url(#Degradado_sin_nombre_37)"/><line x1="200.9" y1="7.5" x2="200.9" y2="32.8" fill="none" stroke-miterlimit="10" stroke="url(#Degradado_sin_nombre_37-2)"/><line x1="13.1" y1="33.9" x2="188.9" y2="33.9" fill="none" stroke-miterlimit="10" stroke="url(#Degradado_sin_nombre_30)"/><line x1="8.4" y1="39.8" x2="194" y2="39.6" fill="none" stroke-miterlimit="10" stroke="url(#Degradado_sin_nombre_30-2)"/><path d="M0,7.2" transform="translate(1 0.5)" fill="none" stroke="#b07a3f" stroke-miterlimit="10"/><path d="M6.2,11.7,0,7.2a19.8,19.8,0,0,0,4.2-3A18,18,0,0,0,7,.4H7l5,5.7h0a6.4,6.4,0,0,1-1.7,3.3,8.6,8.6,0,0,1-4.1,2.3Z" transform="translate(1 0.5)" fill="none" stroke="#b07a3f" stroke-miterlimit="10"/><path d="M7.4,39.3" transform="translate(1 0.5)" fill="none" stroke="#7d452f" stroke-miterlimit="10"/><path d="M12.2,33.4,7.4,39.3a17.3,17.3,0,0,0-3.1-4,18.8,18.8,0,0,0-4-2.6h0l6-4.8h0a7.1,7.1,0,0,1,3.4,1.6,7.9,7.9,0,0,1,2.5,3.9Z" transform="translate(1 0.5)" fill="none" stroke="#7d452f" stroke-miterlimit="10"/><path d="M200,32.3" transform="translate(1 0.5)" fill="none" stroke="#c98a49" stroke-miterlimit="10"/><path d="M193.8,27.7l6.2,4.6a14.4,14.4,0,0,0-4.2,2.9A15.1,15.1,0,0,0,193,39h0l-5.1-5.7h0a7.7,7.7,0,0,1,1.7-3.2,8.8,8.8,0,0,1,4.2-2.4Z" transform="translate(1 0.5)" fill="none" stroke="#c98a49" stroke-miterlimit="10"/><path d="M192.8.4" transform="translate(1 0.5)" fill="none" stroke="#7d452f" stroke-miterlimit="10"/><path d="M188,6.3,192.8.4a15.3,15.3,0,0,0,3.1,3.9,14,14,0,0,0,4,2.6h0l-6,4.9h0a9.8,9.8,0,0,1-3.4-1.6A7.9,7.9,0,0,1,188,6.3Z" transform="translate(1 0.5)" fill="none" stroke="#7d452f" stroke-miterlimit="10"/></g><text transform="translate(45.9 26.7)" font-size="18" fill="#ca9e67" font-family="AlbertusMT, Albertus MT">Submit Repl<tspan x="92.4" y="0" letter-spacing="-0.04em">a</tspan><tspan x="100" y="0">y</tspan></text></g></svg>