<?xml version="1.0" encoding="utf-8"?>
<!-- Generator: Adobe Illustrator 22.1.0, SVG Export Plug-In . SVG Version: 6.00 Build 0)  -->
<svg version="1.1" id="Arrow" xmlns="http://www.w3.org/2000/svg" xmlns:xlink="http://www.w3.org/1999/xlink" x="0px" y="0px"
	 viewBox="0 0 400 400" style="enable-background:new 0 0 400 400;" xml:space="preserve">
<style type="text/css">
	.st0{fill:url(#SVGID_1_);}
	.st1{fill:none;stroke:url(#SVGID_2_);stroke-width:5;stroke-miterlimit:10;}
	.st2{fill:none;stroke:url(#SVGID_3_);stroke-width:5;stroke-miterlimit:10;}
	.st3{fill:#E69039;}
	.st4{fill:#301209;}
	.st5{fill:none;stroke:#7C452E;stroke-width:5;stroke-linecap:round;stroke-linejoin:round;stroke-miterlimit:10;}
	.st6{fill:none;stroke:#AE793F;stroke-width:5;stroke-linecap:round;stroke-linejoin:round;stroke-miterlimit:10;}
</style>
<g id="Normal">
	
		<radialGradient id="SVGID_1_" cx="77.5" cy="68.8898" r="73.3214" gradientTransform="matrix(2.5806 0 0 2.9032 0 0)" gradientUnits="userSpaceOnUse">
		<stop  offset="0" style="stop-color:#270E0C"/>
		<stop  offset="1" style="stop-color:#4B2916"/>
	</radialGradient>
	<rect class="st0" width="400" height="400"/>
	<linearGradient id="SVGID_2_" gradientUnits="userSpaceOnUse" x1="36.571" y1="36.571" x2="363.429" y2="363.429">
		<stop  offset="0" style="stop-color:#7C452E"/>
		<stop  offset="1" style="stop-color:#AE793F"/>
	</linearGradient>
	<rect x="39.1" y="39.1" class="st1" width="321.9" height="321.9"/>
	<linearGradient id="SVGID_3_" gradientUnits="userSpaceOnUse" x1="-2.5" y1="-2.5" x2="402.5" y2="402.5">
		<stop  offset="0" style="stop-color:#7C452E"/>
		<stop  offset="1" style="stop-color:#AE793F"/>
	</linearGradient>
	<rect class="st2" width="400" height="400"/>
	<path class="st3" d="M200.2,104.5c7.2,53,42.4,82,71.3,82.2c24.2,0.2,33.5-6.4,38.7-28.1c-3.7,5.1-13.5,10.6-18.6,10.6
		c-11.9,0-21.6-9.7-21.6-21.6c0-11.9,9.7-21.6,21.6-21.6c4.6,0,8.9,1.4,12.4,3.9l0,0c9.4,6.5,20.3,16,22.3,36.2
		c3.1,31.5-32,69.9-90,78.6c-2.9,0.5-17.8,3-27.8,16.9c-8.2,11.3-8.2,26.9-8.2,33.9c-0.8-9.5-0.9-23.3-9.1-33.9
		c-10.5-13.5-24.9-16.5-27.8-16.9c-58-8.8-93.1-47.2-90-78.6c2-20.3,12.9-29.7,22.3-36.2l0,0c3.5-2.5,7.8-3.9,12.4-3.9
		c11.9,0,21.6,9.7,21.6,21.6c0,11.9-9.7,21.6-21.6,21.6c-5.1,0-14.9-5.5-18.6-10.6c5.3,21.7,14.6,28.3,38.7,28.1
		c29-0.2,64.2-29.2,71.3-82.2"/>
	<path class="st4" d="M199.5,240.7c1.6-4.5,5-12.1,12.1-19.3c7.7-8,16-11.6,20.6-13.3h0.6c-4.6-1.7-12.9-5.3-20.6-13.3
		c-7.1-7.3-10.5-14.9-12.1-19.3h-0.3c-1.6,4.5-5,12.1-12.1,19.3c-7.7,8-16,11.6-20.6,13.3h0.6c4.6,1.7,12.9,5.3,20.6,13.3
		c7.1,7.3,10.5,14.9,12.1,19.3"/>
	<line class="st5" x1="39.1" y1="39.1" x2="0" y2="0"/>
	<line class="st6" x1="360.9" y1="39.1" x2="400" y2="0"/>
	<line class="st6" x1="360.9" y1="360.9" x2="400" y2="400"/>
	<line class="st5" x1="38" y1="362" x2="0" y2="400"/>
</g>
</svg>
