<?xml version="1.0" encoding="utf-8"?>
<!-- Generator: Adobe Illustrator 22.1.0, SVG Export Plug-In . SVG Version: 6.00 Build 0)  -->
<svg version="1.1" id="Arrow" xmlns="http://www.w3.org/2000/svg" xmlns:xlink="http://www.w3.org/1999/xlink" x="0px" y="0px"
	 viewBox="0 0 400 400" style="enable-background:new 0 0 400 400;" xml:space="preserve">
<style type="text/css">
	.st0{fill:#F7F6D3;}
	.st1{fill:none;stroke:url(#SVGID_1_);stroke-width:5;stroke-miterlimit:10;}
	.st2{fill:none;stroke:url(#SVGID_2_);stroke-width:5;stroke-miterlimit:10;}
	.st3{fill:#8F6C3E;}
	.st4{fill:none;stroke:#8F6C3E;stroke-width:5;stroke-miterlimit:10;}
	.st5{fill:none;stroke:url(#SVGID_3_);stroke-width:5;stroke-miterlimit:10;}
	.st6{fill:none;stroke:#FCD38D;stroke-width:5;stroke-miterlimit:10;}
	.st7{fill:none;stroke:url(#SVGID_4_);stroke-width:5;stroke-miterlimit:10;}
</style>
<g id="Hover">
	<g>
		<rect class="st0" width="400" height="400"/>
		<linearGradient id="SVGID_1_" gradientUnits="userSpaceOnUse" x1="36.571" y1="36.571" x2="363.429" y2="363.429">
			<stop  offset="0" style="stop-color:#8F6C3E"/>
			<stop  offset="1" style="stop-color:#FCD38D"/>
		</linearGradient>
		<rect x="39.1" y="39.1" class="st1" width="321.9" height="321.9"/>
		<linearGradient id="SVGID_2_" gradientUnits="userSpaceOnUse" x1="-2.5" y1="-2.5" x2="402.5" y2="402.5">
			<stop  offset="0" style="stop-color:#8F6C3E"/>
			<stop  offset="1" style="stop-color:#FCD38D"/>
		</linearGradient>
		<rect class="st2" width="400" height="400"/>
		<path class="st3" d="M200.2,104.5c7.2,53,42.4,82,71.3,82.2c24.2,0.2,33.5-6.4,38.7-28.1c-3.7,5.1-13.5,10.6-18.6,10.6
			c-11.9,0-21.6-9.7-21.6-21.6c0-11.9,9.7-21.6,21.6-21.6c4.6,0,8.9,1.4,12.4,3.9l0,0c9.4,6.5,20.3,16,22.3,36.2
			c3.1,31.5-32,69.9-90,78.6c-2.9,0.5-17.8,3-27.8,16.9c-8.2,11.3-8.2,26.9-8.2,33.9c-0.8-9.5-0.9-23.3-9.1-33.9
			c-10.5-13.5-24.9-16.5-27.8-16.9c-58-8.8-93.1-47.2-90-78.6c2-20.3,12.9-29.7,22.3-36.2l0,0c3.5-2.5,7.8-3.9,12.4-3.9
			c11.9,0,21.6,9.7,21.6,21.6c0,11.9-9.7,21.6-21.6,21.6c-5.1,0-14.9-5.5-18.6-10.6c5.3,21.7,14.6,28.3,38.7,28.1
			c29-0.2,64.2-29.2,71.3-82.2"/>
		<path class="st0" d="M199.5,240.7c1.6-4.5,5-12.1,12.1-19.3c7.7-8,16-11.6,20.6-13.3h0.6c-4.6-1.7-12.9-5.3-20.6-13.3
			c-7.1-7.3-10.5-14.9-12.1-19.3h-0.3c-1.6,4.5-5,12.1-12.1,19.3c-7.7,8-16,11.6-20.6,13.3h0.6c4.6,1.7,12.9,5.3,20.6,13.3
			c7.1,7.3,10.5,14.9,12.1,19.3"/>
		<line class="st4" x1="39.1" y1="39.1" x2="0" y2="0"/>
		<linearGradient id="SVGID_3_" gradientUnits="userSpaceOnUse" x1="359.1613" y1="19.5355" x2="401.7678" y2="19.5355">
			<stop  offset="0" style="stop-color:#A08054"/>
			<stop  offset="1" style="stop-color:#FCD38D"/>
		</linearGradient>
		<line class="st5" x1="360.9" y1="39.1" x2="400" y2="0"/>
		<line class="st6" x1="360.9" y1="360.9" x2="400" y2="400"/>
		<linearGradient id="SVGID_4_" gradientUnits="userSpaceOnUse" x1="-1.7678" y1="381" x2="39.7678" y2="381">
			<stop  offset="0" style="stop-color:#A08054"/>
			<stop  offset="1" style="stop-color:#FCD38D"/>
		</linearGradient>
		<line class="st7" x1="38" y1="362" x2="0" y2="400"/>
	</g>
</g>
</svg>
