<?xml version="1.0" encoding="utf-8"?>
<!-- Generator: Adobe Illustrator 22.1.0, SVG Export Plug-In . SVG Version: 6.00 Build 0)  -->
<svg version="1.1" id="Button_uploadrp" xmlns="http://www.w3.org/2000/svg" xmlns:xlink="http://www.w3.org/1999/xlink" x="0px"
	 y="0px" viewBox="0 0 200 60" style="enable-background:new 0 0 200 60;" xml:space="preserve">
<style type="text/css">
	.st0{fill:url(#SVGID_1_);}
	.st1{fill:none;stroke:url(#SVGID_2_);stroke-miterlimit:10;}
	.st2{fill:none;stroke:url(#SVGID_3_);stroke-miterlimit:10;}
	.st3{fill:none;stroke:url(#SVGID_4_);stroke-miterlimit:10;}
	.st4{fill:none;stroke:url(#SVGID_5_);stroke-miterlimit:10;}
	.st5{fill:none;stroke:url(#SVGID_6_);stroke-miterlimit:10;}
	.st6{fill:none;stroke:url(#SVGID_7_);stroke-miterlimit:10;}
	.st7{fill:none;stroke:url(#SVGID_8_);stroke-miterlimit:10;}
	.st8{fill:none;stroke:url(#SVGID_9_);stroke-miterlimit:10;}
	.st9{fill:none;stroke:url(#SVGID_10_);stroke-miterlimit:10;}
	.st10{fill:none;stroke:url(#SVGID_11_);stroke-miterlimit:10;}
	.st11{fill:none;stroke:url(#SVGID_12_);stroke-miterlimit:10;}
	.st12{fill:none;stroke:url(#SVGID_13_);stroke-miterlimit:10;}
	.st13{fill:none;stroke:url(#SVGID_14_);stroke-miterlimit:10;}
	.st14{fill:none;stroke:#B07A3F;stroke-miterlimit:10;}
	.st15{fill:none;stroke:#7D452F;stroke-miterlimit:10;}
	.st16{fill:none;stroke:#C98A49;stroke-miterlimit:10;}
	.st17{fill:none;}
	.st18{fill:#CA9E67;}
	.st19{font-family:'AlbertusMT';}
	.st20{font-size:18px;}
</style>
<g>
	
		<radialGradient id="SVGID_1_" cx="38.2708" cy="-111.8714" r="49.1541" gradientTransform="matrix(1.5078 0 0 1.431 42.3063 190.2586)" gradientUnits="userSpaceOnUse">
		<stop  offset="0" style="stop-color:#270F0D"/>
		<stop  offset="1" style="stop-color:#4B2917"/>
	</radialGradient>
	<path class="st0" d="M7.4,60c-0.6-1-1.5-2.5-3.1-4c-1.5-1.3-3-2.2-4-2.6v0C0.3,53.4,0,7.2,0,7.2c1.1-0.5,2.6-1.4,4.2-2.9
		C5.6,2.8,6.5,1.4,7,0.4h0c0,0,185.8-0.1,185.8-0.1c0.6,1,1.5,2.5,3.1,4c1.5,1.3,3,2.2,4,2.6v0c0,0,0.1,46,0.1,46
		c-1.1,0.5-2.6,1.4-4.2,2.9c-1.4,1.4-2.3,2.8-2.8,3.8h0C193,59.7,7.4,60,7.4,60z"/>
</g>
<g>
	<linearGradient id="SVGID_2_" gradientUnits="userSpaceOnUse" x1="6.2894" y1="48.2203" x2="6.2894" y2="48.2203">
		<stop  offset="0" style="stop-color:#7C452E"/>
		<stop  offset="1" style="stop-color:#B07A40"/>
	</linearGradient>
	<path class="st1" d="M6.3,48.2"/>
	<linearGradient id="SVGID_3_" gradientUnits="userSpaceOnUse" x1="6.222" y1="11.3588" x2="6.222" y2="11.3588">
		<stop  offset="0" style="stop-color:#7C452E"/>
		<stop  offset="1" style="stop-color:#B07A40"/>
	</linearGradient>
	<path class="st2" d="M6.2,11.4"/>
	<linearGradient id="SVGID_4_" gradientUnits="userSpaceOnUse" x1="0" y1="6.8208" x2="0" y2="6.8208">
		<stop  offset="0" style="stop-color:#7C452E"/>
		<stop  offset="1" style="stop-color:#B07A40"/>
	</linearGradient>
	<path class="st3" d="M0,6.8"/>
	<linearGradient id="SVGID_5_" gradientUnits="userSpaceOnUse" x1="12.0408" y1="5.7776" x2="12.0408" y2="5.7776">
		<stop  offset="0" style="stop-color:#7C452E"/>
		<stop  offset="1" style="stop-color:#B07A40"/>
	</linearGradient>
	<path class="st4" d="M12,5.8"/>
	<linearGradient id="SVGID_6_" gradientUnits="userSpaceOnUse" x1="6.9507" y1="6.857722e-02" x2="6.9507" y2="6.857722e-02">
		<stop  offset="0" style="stop-color:#7C452E"/>
		<stop  offset="1" style="stop-color:#B07A40"/>
	</linearGradient>
	<path class="st5" d="M7,0.1"/>
	<linearGradient id="SVGID_7_" gradientUnits="userSpaceOnUse" x1="192.7933" y1="3.428861e-02" x2="6.9506" y2="3.428861e-02">
		<stop  offset="0" style="stop-color:#7C452E"/>
		<stop  offset="1" style="stop-color:#B07A40"/>
	</linearGradient>
	<line class="st6" x1="7" y1="0.1" x2="192.8" y2="0"/>
	<linearGradient id="SVGID_8_" gradientUnits="userSpaceOnUse" x1="-11.6043" y1="41.6767" x2="11.8773" y2="18.1951">
		<stop  offset="0" style="stop-color:#7C452E"/>
		<stop  offset="1" style="stop-color:#B07A40"/>
	</linearGradient>
	<line class="st7" x1="0" y1="6.8" x2="0.3" y2="53.1"/>
	<linearGradient id="SVGID_9_" gradientUnits="userSpaceOnUse" x1="-3.1941" y1="39.2386" x2="15.7039" y2="20.3405">
		<stop  offset="0" style="stop-color:#7C452E"/>
		<stop  offset="1" style="stop-color:#B07A40"/>
	</linearGradient>
	<line class="st8" x1="6.2" y1="11.4" x2="6.3" y2="48.2"/>
	<linearGradient id="SVGID_10_" gradientUnits="userSpaceOnUse" x1="188.0119" y1="5.8409" x2="12.0405" y2="5.8409">
		<stop  offset="0" style="stop-color:#7C452E"/>
		<stop  offset="1" style="stop-color:#B07A40"/>
	</linearGradient>
	<line class="st9" x1="12" y1="5.8" x2="188" y2="5.9"/>
	<linearGradient id="SVGID_11_" gradientUnits="userSpaceOnUse" x1="184.4403" y1="20.3775" x2="203.2109" y2="39.1482">
		<stop  offset="0" style="stop-color:#7C452E"/>
		<stop  offset="1" style="stop-color:#C98A49"/>
	</linearGradient>
	<line class="st10" x1="193.9" y1="11.4" x2="193.8" y2="48.1"/>
	<linearGradient id="SVGID_12_" gradientUnits="userSpaceOnUse" x1="188.1663" y1="17.8389" x2="211.7216" y2="41.3941">
		<stop  offset="0" style="stop-color:#7C452E"/>
		<stop  offset="1" style="stop-color:#C98A49"/>
	</linearGradient>
	<line class="st11" x1="199.9" y1="6.6" x2="200" y2="52.6"/>
	<linearGradient id="SVGID_13_" gradientUnits="userSpaceOnUse" x1="12.1691" y1="53.7115" x2="187.9395" y2="53.7115">
		<stop  offset="0" style="stop-color:#7C452E"/>
		<stop  offset="1" style="stop-color:#C98A49"/>
	</linearGradient>
	<line class="st12" x1="12.2" y1="53.7" x2="187.9" y2="53.7"/>
	<linearGradient id="SVGID_14_" gradientUnits="userSpaceOnUse" x1="7.3871" y1="59.5181" x2="193.03" y2="59.5181">
		<stop  offset="0" style="stop-color:#7C452E"/>
		<stop  offset="1" style="stop-color:#C98A49"/>
	</linearGradient>
	<line class="st13" x1="7.4" y1="59.6" x2="193" y2="59.4"/>
	<g>
		<path class="st14" d="M0,6.8"/>
		<path class="st14" d="M6.2,11.4L0,6.8c1.1-0.5,2.6-1.4,4.2-2.9C5.6,2.5,6.4,1.1,7,0.1h0L12,5.8h0c-0.2,0.7-0.6,2-1.7,3.2
			C8.8,10.7,6.9,11.2,6.2,11.4L6.2,11.4z"/>
	</g>
	<g>
		<path class="st15" d="M7.4,59.6"/>
		<path class="st15" d="M12.2,53.7l-4.8,5.9c-0.6-1-1.5-2.5-3.1-4c-1.5-1.3-3-2.2-4-2.6v0l6-4.8v0c0.7,0.2,2.1,0.5,3.4,1.6
			C11.4,51.3,12,53.1,12.2,53.7L12.2,53.7z"/>
	</g>
	<g>
		<path class="st16" d="M200,52.6"/>
		<path class="st16" d="M193.8,48.1l6.2,4.5c-1.1,0.5-2.6,1.4-4.2,2.9c-1.4,1.4-2.3,2.8-2.8,3.8h0l-5.1-5.7h0c0.2-0.7,0.6-2,1.7-3.2
			C191.2,48.8,193.1,48.3,193.8,48.1L193.8,48.1z"/>
	</g>
	<g>
		<path class="st15" d="M192.8,0"/>
		<path class="st15" d="M188,5.9l4.8-5.9c0.6,1,1.5,2.5,3.1,4c1.5,1.3,3,2.2,4,2.6v0l-6,4.8v0c-0.7-0.2-2.1-0.5-3.4-1.6
			C188.7,8.4,188.2,6.6,188,5.9L188,5.9z"/>
	</g>
</g>
<rect x="43.6" y="22.3" class="st17" width="112.8" height="15.5"/>
<text transform="matrix(1 0 0 1 43.5917 35.8218)" class="st18 st19 st20">Upload </text>
</svg>
