<?xml version="1.0" encoding="utf-8"?>
<!-- Generator: Adobe Illustrator 22.1.0, SVG Export Plug-In . SVG Version: 6.00 Build 0)  -->
<svg version="1.1" id="Check" xmlns="http://www.w3.org/2000/svg" xmlns:xlink="http://www.w3.org/1999/xlink" x="0px" y="0px"
	 viewBox="0 0 400 400" style="enable-background:new 0 0 400 400;" xml:space="preserve">
<style type="text/css">
	.st0{fill:url(#SVGID_1_);}
</style>
<g id="Tick">
	<g>
		<linearGradient id="SVGID_1_" gradientUnits="userSpaceOnUse" x1="61.2949" y1="201.0462" x2="325.6212" y2="201.0462">
			<stop  offset="0" style="stop-color:#7C452E"/>
			<stop  offset="1" style="stop-color:#AE793F"/>
		</linearGradient>
		<path class="st0" d="M318.7,85.6c-6.2,9.5-12.5,18.9-18.9,28.2c-6.4,9.3-12.8,18.6-19.2,27.8l-38.5,55.3l-38.4,55.3l-38.2,55.5
			l-6.1,8.8l-6.5-7.9c-6.3-7.6-12.8-15.1-19.6-22.3c-3.4-3.6-6.8-7.2-10.4-10.7c-3.5-3.5-7.1-7-10.7-10.4
			c-7.3-6.8-14.8-13.4-22.6-19.8c-7.7-6.4-15.7-12.6-23.9-18.7c9.3,4,18.4,8.6,27.3,13.7c4.4,2.6,8.8,5.2,13.1,8
			c4.3,2.8,8.5,5.7,12.7,8.7c8.3,6,16.3,12.5,24,19.3c7.7,6.9,15,14.1,22,21.6l-12.6,0.9c11.7-19.4,23.9-38.5,36.7-57.1
			c12.8-18.7,26-37,39.9-54.9c13.8-17.9,28.2-35.4,43.1-52.4c7.5-8.5,15.1-16.9,22.9-25.1C302.5,101.4,310.5,93.4,318.7,85.6z"/>
	</g>
</g>
</svg>
